<?xml version="1.0" encoding="utf-8"?>
<!-- Generator: Adobe Illustrator 24.1.2, SVG Export Plug-In . SVG Version: 6.00 Build 0)  -->
<svg version="1.1" id="Capa_1" xmlns="http://www.w3.org/2000/svg" xmlns:xlink="http://www.w3.org/1999/xlink" x="0px" y="0px"
	 viewBox="0 0 201.9 80" style="enable-background:new 0 0 201.9 80;" xml:space="preserve">
<style type="text/css">
	.st0{fill:#FFFFFF;}
	.st1{fill:none;stroke:#15427D;stroke-width:0.216;stroke-miterlimit:10;}
	.st2{fill:#15427D;}
</style>
<path class="st0" d="M80.3,25.4c-0.1-1.3-0.2-2.7-0.3-4c-0.1-1.6-1.3-3-2.4-3.6c-0.3-0.2-0.7-0.4-1.1-0.6c-0.1,0-0.2-0.1-0.2-0.1
	l-0.1,0c-0.6-0.3-1.2-0.6-1.9-1c-2.4-1.3-4.6-2.7-6.6-4.3c-0.8-0.7-1.6-1.4-2.2-2.1c-0.2-0.3-0.5-0.5-0.8-0.7
	c-0.1-0.1-0.2-0.1-0.2-0.2c-2.8-2.3-5.7-2.6-6.8-2.7c0,0-0.1,0-0.1,0c-0.2,0-0.5,0-0.7,0.1c-0.5-0.3-1.1-0.7-1.7-1
	c-3.4-1.8-7.2-2.8-10.9-2.8c-2,0-4,0.3-5.9,0.8C35.9,4,33.1,4.5,29.8,5c-0.3,0-0.6,0.1-0.9,0.1c-0.6,0-1.2-0.1-1.9-0.1
	c-0.1,0-0.2,0-0.3,0c-0.1,0-0.2,0-0.2,0c-1.2,0-2.2,0.6-2.8,1.7c-0.6,1-0.5,2.3,0.1,3.3c0.5,0.8,0.9,1.4,1.4,1.9
	c-2.3,0.8-4.7,1.4-7.3,1.4c-0.3,0-0.6,0-0.8,0c-0.7,0-1.4-0.2-2.2-0.3c0,0,0,0,0,0c-0.2,0-0.4,0-0.5,0c-1.1,0-2.1,0.6-2.7,1.5
	c-0.6,0.9-0.7,2.1-0.2,3.1c1.4,3,2.8,5.1,4.2,6.2c0.1,0.1,0.3,0.2,0.4,0.3c0,0.5-0.1,1.1-0.1,1.6c-0.3,3.7-0.6,7.5-0.2,11.3
	c2.2,18.1,12,32,29,41.3c1.2,0.7,2.3,1,3.3,1c0,0,0.1,0,0.1,0c0,0,0.1,0,0.1,0c1,0,2.1-0.3,3.3-1c17-9.3,26.8-23.2,29-41.3
	C80.9,32.9,80.6,29.1,80.3,25.4z"/>
<path class="st1" d="M80.3,25.4c-0.1-1.3-0.2-2.7-0.3-4c-0.1-1.6-1.3-3-2.4-3.6c-0.3-0.2-0.7-0.4-1.1-0.6c-0.1,0-0.2-0.1-0.2-0.1
	l-0.1,0c-0.6-0.3-1.2-0.6-1.9-1c-2.4-1.3-4.6-2.7-6.6-4.3c-0.8-0.7-1.6-1.4-2.2-2.1c-0.2-0.3-0.5-0.5-0.8-0.7
	c-0.1-0.1-0.2-0.1-0.2-0.2c-2.8-2.3-5.7-2.6-6.8-2.7c0,0-0.1,0-0.1,0c-0.2,0-0.5,0-0.7,0.1c-0.5-0.3-1.1-0.7-1.7-1
	c-3.4-1.8-7.2-2.8-10.9-2.8c-2,0-4,0.3-5.9,0.8C35.9,4,33.1,4.5,29.8,5c-0.3,0-0.6,0.1-0.9,0.1c-0.6,0-1.2-0.1-1.9-0.1
	c-0.1,0-0.2,0-0.3,0c-0.1,0-0.2,0-0.2,0c-1.2,0-2.2,0.6-2.8,1.7c-0.6,1-0.5,2.3,0.1,3.3c0.5,0.8,0.9,1.4,1.4,1.9
	c-2.3,0.8-4.7,1.4-7.3,1.4c-0.3,0-0.6,0-0.8,0c-0.7,0-1.4-0.2-2.2-0.3c0,0,0,0,0,0c-0.2,0-0.4,0-0.5,0c-1.1,0-2.1,0.6-2.7,1.5
	c-0.6,0.9-0.7,2.1-0.2,3.1c1.4,3,2.8,5.1,4.2,6.2c0.1,0.1,0.3,0.2,0.4,0.3c0,0.5-0.1,1.1-0.1,1.6c-0.3,3.7-0.6,7.5-0.2,11.3
	c2.2,18.1,12,32,29,41.3c1.2,0.7,2.3,1,3.3,1c0,0,0.1,0,0.1,0c0,0,0.1,0,0.1,0c1,0,2.1-0.3,3.3-1c17-9.3,26.8-23.2,29-41.3
	C80.9,32.9,80.6,29.1,80.3,25.4z"/>
<path class="st0" d="M184.5,26.8h-6.9c-1.9,0-3.4,1.4-3.6,3.2l-1.6-2c-0.7-0.8-1.7-1.3-2.8-1.3h-5.8c-2,0-3.6,1.6-3.6,3.6v0.8
	c-1.1-1.2-2.4-2.2-4-3c-2.3-1.2-4.9-1.8-7.8-1.8c-2.8,0-5.4,0.6-7.8,1.8c-0.3,0.2-0.7,0.4-1,0.6c0,0,0-0.1,0-0.1
	c-0.6-1.1-1.8-1.8-3.1-1.8h-6.8c-1.3,0-2.4,0.7-3.1,1.8l-1.2,2l-1.2-2c-0.6-1.1-1.8-1.8-3.1-1.8h-7.5c-1.3,0-2.5,0.7-3.1,1.8
	l-0.6,1.1c-0.1,0.2-0.4,0.2-0.5-0.1c-0.3-1.6-1.8-2.8-3.5-2.8h-7.1c-2,0-3.6,1.6-3.6,3.6v21c0,2,1.6,3.6,3.6,3.6h16.6
	c1.3,0,2.4-0.7,3.1-1.7c0.6,1,1.8,1.7,3.1,1.7h11c2,0,3.6-1.6,3.6-3.6v-0.7c0-0.3,0.3-0.4,0.5-0.2c1.1,1.3,2.5,2.3,4.1,3.1
	c2.3,1.2,4.9,1.8,7.8,1.8c2.8,0,5.4-0.6,7.8-1.8c1.5-0.8,2.9-1.8,4-3v0.8c0,2,1.6,3.6,3.6,3.6h6.9c1.9,0,3.4-1.4,3.6-3.2l1.6,2
	c0.7,0.8,1.7,1.3,2.8,1.3h5.8c2,0,3.6-1.6,3.6-3.6v-21C188.1,28.5,186.5,26.8,184.5,26.8z"/>
<path class="st1" d="M184.5,26.8h-6.9c-1.9,0-3.4,1.4-3.6,3.2l-1.6-2c-0.7-0.8-1.7-1.3-2.8-1.3h-5.8c-2,0-3.6,1.6-3.6,3.6v0.8
	c-1.1-1.2-2.4-2.2-4-3c-2.3-1.2-4.9-1.8-7.8-1.8c-2.8,0-5.4,0.6-7.8,1.8c-0.3,0.2-0.7,0.4-1,0.6c0,0,0-0.1,0-0.1
	c-0.6-1.1-1.8-1.8-3.1-1.8h-6.8c-1.3,0-2.4,0.7-3.1,1.8l-1.2,2l-1.2-2c-0.6-1.1-1.8-1.8-3.1-1.8h-7.5c-1.3,0-2.5,0.7-3.1,1.8
	l-0.6,1.1c-0.1,0.2-0.4,0.2-0.5-0.1c-0.3-1.6-1.8-2.8-3.5-2.8h-7.1c-2,0-3.6,1.6-3.6,3.6v21c0,2,1.6,3.6,3.6,3.6h16.6
	c1.3,0,2.4-0.7,3.1-1.7c0.6,1,1.8,1.7,3.1,1.7h11c2,0,3.6-1.6,3.6-3.6v-0.7c0-0.3,0.3-0.4,0.5-0.2c1.1,1.3,2.5,2.3,4.1,3.1
	c2.3,1.2,4.9,1.8,7.8,1.8c2.8,0,5.4-0.6,7.8-1.8c1.5-0.8,2.9-1.8,4-3v0.8c0,2,1.6,3.6,3.6,3.6h6.9c1.9,0,3.4-1.4,3.6-3.2l1.6,2
	c0.7,0.8,1.7,1.3,2.8,1.3h5.8c2,0,3.6-1.6,3.6-3.6v-21C188.1,28.5,186.5,26.8,184.5,26.8z"/>
<polygon class="st2" points="98.8,30.4 105.9,30.4 105.9,46 115.4,46 115.4,51.5 98.8,51.5 "/>
<polygon class="st2" points="128.6,43.8 128.6,51.5 121.5,51.5 121.5,43.7 113.6,30.4 121.1,30.4 125.3,37.7 129.7,30.4 136.5,30.4 
	"/>
<path class="st2" d="M142.3,50.5c-1.8-0.9-3.2-2.2-4.2-3.9c-1-1.7-1.5-3.6-1.5-5.7c0-2.1,0.5-4,1.5-5.7c1-1.7,2.4-3,4.2-3.9
	c1.8-0.9,3.8-1.4,6.1-1.4c2.3,0,4.3,0.5,6.1,1.4c1.8,0.9,3.2,2.2,4.2,3.9c1,1.7,1.5,3.6,1.5,5.7c0,2.1-0.5,4-1.5,5.7
	c-1,1.7-2.4,3-4.2,3.9c-1.8,0.9-3.8,1.4-6.1,1.4C146.2,51.9,144.1,51.5,142.3,50.5 M150.8,45.6c0.7-0.4,1.3-1,1.7-1.8
	c0.4-0.8,0.6-1.7,0.6-2.8c0-1.1-0.2-2-0.6-2.8c-0.4-0.8-1-1.4-1.7-1.8c-0.7-0.4-1.5-0.6-2.4-0.6c-0.9,0-1.7,0.2-2.4,0.6
	c-0.7,0.4-1.3,1-1.7,1.8c-0.4,0.8-0.6,1.7-0.6,2.8c0,1.1,0.2,2,0.6,2.8c0.4,0.8,1,1.4,1.7,1.8c0.7,0.4,1.5,0.6,2.4,0.6
	C149.3,46.2,150.1,46,150.8,45.6z"/>
<polygon class="st2" points="184.5,30.4 184.5,51.5 178.6,51.5 170.7,41.9 170.7,51.5 163.8,51.5 163.8,30.4 169.6,30.4 177.6,40 
	177.6,30.4 "/>
<path class="st2" d="M47.6,28.1c1.1,0.4,2.1,1.8,3,1.8c2.7-0.2,5.4-0.8,8,0.4c0-0.1,0.1-0.3,0.1-0.4c-1.8-0.8-3.4-1.9-5.3-2.4
	C51.6,27.1,49.6,27.2,47.6,28.1"/>
<path class="st2" d="M77.7,21.6c0-0.6-0.7-1.4-1.2-1.7c-0.4-0.2-0.8-0.4-1.2-0.6c0,0,0,0,0,0c0,0-0.1,0-0.1-0.1
	c-0.6-0.3-1.3-0.7-1.9-1c-3-1.6-5.3-3.2-7-4.6c-0.9-0.7-1.6-1.5-2.4-2.3c-0.2-0.2-0.5-0.5-0.7-0.7c0,0,0,0,0,0l0,0
	c-2.2-1.9-4.6-2.2-5.5-2.2c-0.1,0-0.2,0.1-0.1,0.2c0.9,0.6,3.6,1.8,4.7,5.5C59.5,10.7,57.3,9,54,7.2C49.4,4.8,44,4,38.9,5.5
	c-2.5,0.7-5.4,1.3-8.8,1.8c-1.1,0.2-2.2,0.1-3.3,0c-0.1,0-0.2,0-0.2,0c-0.8-0.1-1.2,0.8-0.9,1.4c0.7,1.1,1.6,2.4,2.5,2.8
	c0.3,0.2,0.8,0,1.2-0.1c0.3-0.1,0.6-0.3,0.9-0.4c2.3-1.1,4.6-2.2,7.1-2.6c4.2-0.5,7.7,0.2,10.5,2.3c0.8,0.6,1.6,1.2,2.2,1.7
	c-0.7,0-6.3-3.8-11-3.1c-2.6,0.4-5.1,1-8,2.5c-4.3,2.2-9,4.1-14.1,3.8c-0.8,0-1.6-0.2-2.5-0.3c0,0,0,0,0,0c-0.7-0.1-1.3,0.6-1,1.3
	c0.8,1.7,2.1,4.2,3.5,5.3c0.5,0.4,0.9,0.7,1.4,1c-0.3,4.6-1,9.2-0.4,13.7C20.1,54.3,29.8,67.3,45.8,76c0.7,0.4,1.6,0.8,2.3,0.7
	c0.7,0,1.6-0.3,2.3-0.7c15.9-8.7,25.6-21.7,27.9-39.6C78.8,31.6,78,26.5,77.7,21.6 M66.4,15.4C66.4,15.4,66.4,15.4,66.4,15.4
	C66.4,15.4,66.4,15.4,66.4,15.4L66.4,15.4z M60.4,63.1C60.4,63.1,60.4,63.2,60.4,63.1c-2.4,2.9-8.1,5.3-8.1,5.3
	c0.8-1.1-0.7-6.2-1.3-8.2c-0.1-0.3-0.2-0.5-0.3-0.8c0,0,0,0,0,0v0c-0.8-2.8-1.2-6.6,0.2-9.8c0-0.1,0.1-0.1,0.1,0
	c0,1.2-0.1,4.8,0.7,7.4c0.3,0.9,0.6,1.6,1.1,2c0.3,0.4,0.7,0.8,1.2,1.1c0.3-0.2,0.8-0.6,1.2-1.3c0.3-0.4,0.5-0.8,0.8-1.4
	c0.2,0.4,0.5,1.1,0.6,1.9c0.1,0.6,0.1,1.1-0.2,1.6c0,0,0,0-0.1,0c0.4,0.1,0.9,0.1,1.4,0.1c1.1,0,2.1-0.5,2.7-1.3
	c0.3-0.4,0.5-1,0.5-1.6C61.6,58.7,62.4,61,60.4,63.1z M60.8,45.5c0-1.5,0-2.3-1.2-3.9c1,0.4,2.8,0,3.2,0
	C63.6,42.3,62.1,44.5,60.8,45.5z M61.4,40.5c-0.8,0-1.5,0-2.2,0c-4.4-0.3-7.2,4-7.8,5.1c-0.1,0.1-0.2,0.2-0.4,0.1
	c-1.2-1.1-7.2-6.4-7.5-6.7c-1.3-1.4-1.5-3.2-1.1-4.9c0.7-2.6,1.7-5.1,2.5-7.5c0.4-2-1.2-2.9-1.2-2.9c-2.3-1.8-5.7-2.9-7.5-3.3
	c-0.3-0.1-0.2-0.4,0-0.5c3.3-0.6,6.5-0.8,6.5-0.8c5.2-0.4,13.2-0.4,17.2,2.7c0.1-0.3,0.3-0.6,0.4-0.9c0.1-0.2,0.4-0.4,0.6-0.3
	c3.1,0.7,6.4,3.8,6.7,6.6c0,0.4-0.5,0.8-0.9,1.3c2.1,1.1,4.3,2.5,5.6,5h-7.8c-0.9,0.1-0.5,0.4-0.2,0.6c0.7,0.4,1.5,0.8,2.2,1.3
	c2.2,1.4,3.6,1.4,3,3.1C68.6,40.9,63.6,40.5,61.4,40.5z M69.3,45.6c0.1-0.4,1.1-2.6-0.1-4.5c0.6,0.3,1.9,0.9,2.6,0.3
	C72.2,43.3,70.8,44.4,69.3,45.6z M72.2,40.1c-0.9,1.2-2.7,0.2-2.2-1.2c0,0,0,0,0-0.1c0.9-2.2,2.1-2.5,2.2-4.5
	C73.9,36.4,73.9,37.9,72.2,40.1z"/>
</svg>
